<mxfile host="65bd71144e" modified="2020-11-05T15:13:53.758Z" agent="5.0 (Macintosh; Intel Mac OS X 10_15_7) AppleWebKit/537.36 (KHTML, like Gecko) Code/1.50.1 Chrome/83.0.4103.122 Electron/9.2.1 Safari/537.36" etag="c7yCWdbsoK2WmABjairw" version="13.6.5">
    <diagram id="YXvyjFkgTotu7tPlVu3F" name="【Spring】PropertySources">
        <mxGraphModel dx="2248" dy="1139" grid="1" gridSize="10" guides="1" tooltips="1" connect="1" arrows="1" fold="1" page="1" pageScale="1" pageWidth="827" pageHeight="1169" math="0" shadow="0">
            <root>
                <mxCell id="vNIrbcdj6Tb2kEkjcBfy-0"/>
                <mxCell id="vNIrbcdj6Tb2kEkjcBfy-1" parent="vNIrbcdj6Tb2kEkjcBfy-0"/>
                <mxCell id="Qm6FtNiJ-j_i7UbqSpTN-33" value="" style="group" vertex="1" connectable="0" parent="vNIrbcdj6Tb2kEkjcBfy-1">
                    <mxGeometry x="230" y="-110" width="260" height="340" as="geometry"/>
                </mxCell>
                <mxCell id="Qm6FtNiJ-j_i7UbqSpTN-32" value="" style="rounded=1;whiteSpace=wrap;html=1;align=center;arcSize=4;fillColor=#eeeeee;strokeColor=#36393d;" vertex="1" parent="Qm6FtNiJ-j_i7UbqSpTN-33">
                    <mxGeometry width="260" height="340" as="geometry"/>
                </mxCell>
                <mxCell id="uffdPMko18o28LSAwXjy-85" value="«interface»&#10;PropertySources" style="rounded=1;shadow=0;glass=0;sketch=0;fillColor=#dae8fc;strokeColor=#6c8ebf;" parent="Qm6FtNiJ-j_i7UbqSpTN-33" vertex="1">
                    <mxGeometry x="20" y="130" width="220" height="50" as="geometry"/>
                </mxCell>
                <mxCell id="uffdPMko18o28LSAwXjy-87" value="«interface»&#10;Iterable&lt;PropertySource&lt;?&gt;&gt;" style="rounded=1;shadow=0;glass=0;sketch=0;fillColor=#dae8fc;strokeColor=#6c8ebf;" parent="Qm6FtNiJ-j_i7UbqSpTN-33" vertex="1">
                    <mxGeometry x="20" y="30" width="220" height="50" as="geometry"/>
                </mxCell>
                <mxCell id="uffdPMko18o28LSAwXjy-90" value="" style="endArrow=block;endSize=16;endFill=0;html=1;edgeStyle=orthogonalEdgeStyle;entryX=0.5;entryY=1;entryDx=0;entryDy=0;exitX=0.5;exitY=0;exitDx=0;exitDy=0;" parent="Qm6FtNiJ-j_i7UbqSpTN-33" source="uffdPMko18o28LSAwXjy-85" target="uffdPMko18o28LSAwXjy-87" edge="1">
                    <mxGeometry width="160" relative="1" as="geometry">
                        <mxPoint x="-190" y="190" as="sourcePoint"/>
                        <mxPoint x="-93" y="110" as="targetPoint"/>
                    </mxGeometry>
                </mxCell>
                <mxCell id="uffdPMko18o28LSAwXjy-91" value="" style="endArrow=block;dashed=1;endFill=0;endSize=12;html=1;edgeStyle=orthogonalEdgeStyle;entryX=0.5;entryY=1;entryDx=0;entryDy=0;exitX=0.5;exitY=0;exitDx=0;exitDy=0;" parent="Qm6FtNiJ-j_i7UbqSpTN-33" source="uffdPMko18o28LSAwXjy-88" target="uffdPMko18o28LSAwXjy-85" edge="1">
                    <mxGeometry width="160" relative="1" as="geometry">
                        <mxPoint x="-350" y="250" as="sourcePoint"/>
                        <mxPoint x="-488" y="170" as="targetPoint"/>
                    </mxGeometry>
                </mxCell>
                <mxCell id="uffdPMko18o28LSAwXjy-88" value="MutablePropertySources" style="swimlane;fontStyle=1;align=center;verticalAlign=top;childLayout=stackLayout;horizontal=1;startSize=26;horizontalStack=0;resizeParent=1;resizeParentMax=0;resizeLast=0;collapsible=1;marginBottom=0;rounded=1;shadow=0;glass=0;sketch=0;html=0;fillColor=#f5f5f5;strokeColor=#666666;fontColor=#333333;" parent="Qm6FtNiJ-j_i7UbqSpTN-33" vertex="1">
                    <mxGeometry x="20" y="240" width="220" height="80" as="geometry"/>
                </mxCell>
                <mxCell id="Qm6FtNiJ-j_i7UbqSpTN-7" value=" - List&lt;PropertySource&lt;?&gt;&gt;&#10; + addFirst&#10; + addLast" style="rounded=0;whiteSpace=wrap;shadow=0;glass=0;sketch=0;align=left;verticalAlign=top;" vertex="1" parent="uffdPMko18o28LSAwXjy-88">
                    <mxGeometry y="26" width="220" height="54" as="geometry"/>
                </mxCell>
                <mxCell id="Qm6FtNiJ-j_i7UbqSpTN-9" style="edgeStyle=orthogonalEdgeStyle;rounded=0;orthogonalLoop=1;jettySize=auto;html=1;exitX=1;exitY=0.5;exitDx=0;exitDy=0;entryX=0;entryY=0.5;entryDx=0;entryDy=0;startArrow=diamondThin;startFill=0;" edge="1" parent="vNIrbcdj6Tb2kEkjcBfy-1" source="vkuDN0tzw3VkT4sUhJ8l-2" target="Qm6FtNiJ-j_i7UbqSpTN-7">
                    <mxGeometry relative="1" as="geometry"/>
                </mxCell>
                <mxCell id="Qm6FtNiJ-j_i7UbqSpTN-31" value="" style="group;" vertex="1" connectable="0" parent="vNIrbcdj6Tb2kEkjcBfy-1">
                    <mxGeometry x="580" y="-110" width="1045" height="560" as="geometry"/>
                </mxCell>
                <mxCell id="Qm6FtNiJ-j_i7UbqSpTN-30" value="" style="rounded=1;whiteSpace=wrap;html=1;align=center;arcSize=3;movable=0;resizable=0;rotatable=0;deletable=0;editable=0;connectable=0;fillColor=#eeeeee;strokeColor=#36393d;" vertex="1" parent="Qm6FtNiJ-j_i7UbqSpTN-31">
                    <mxGeometry width="1045" height="560" as="geometry"/>
                </mxCell>
                <mxCell id="uffdPMko18o28LSAwXjy-96" value="CompositePropertySource" style="swimlane;fontStyle=1;align=center;verticalAlign=top;childLayout=stackLayout;horizontal=1;startSize=30;horizontalStack=0;resizeParent=1;resizeParentMax=0;resizeLast=0;collapsible=1;marginBottom=0;rounded=1;shadow=0;glass=0;sketch=0;html=0;fillColor=#e1d5e7;strokeColor=#9673a6;" parent="Qm6FtNiJ-j_i7UbqSpTN-31" vertex="1">
                    <mxGeometry x="25" y="260" width="220" height="54" as="geometry"/>
                </mxCell>
                <mxCell id="Qm6FtNiJ-j_i7UbqSpTN-22" value="Set&lt;PropertySource&lt;?&gt;&gt;" style="rounded=0;whiteSpace=wrap;shadow=0;glass=0;sketch=0;align=left;verticalAlign=top;" vertex="1" parent="uffdPMko18o28LSAwXjy-96">
                    <mxGeometry y="30" width="220" height="24" as="geometry"/>
                </mxCell>
                <mxCell id="uffdPMko18o28LSAwXjy-94" value="«Abs» EnumerablePropertySource" style="swimlane;fontStyle=1;align=center;verticalAlign=top;childLayout=stackLayout;horizontal=1;startSize=26;horizontalStack=0;resizeParent=1;resizeParentMax=0;resizeLast=0;collapsible=1;marginBottom=0;rounded=1;shadow=0;glass=0;sketch=0;html=0;fillColor=#dae8fc;strokeColor=#6c8ebf;" parent="Qm6FtNiJ-j_i7UbqSpTN-31" vertex="1">
                    <mxGeometry x="280" y="130" width="220" height="70" as="geometry"/>
                </mxCell>
                <mxCell id="Qm6FtNiJ-j_i7UbqSpTN-12" value="+ containsProperty(name)&#10;+ String[] getPropertyNames()" style="rounded=0;whiteSpace=wrap;shadow=0;glass=0;sketch=0;align=left;verticalAlign=top;" vertex="1" parent="uffdPMko18o28LSAwXjy-94">
                    <mxGeometry y="26" width="220" height="44" as="geometry"/>
                </mxCell>
                <mxCell id="uffdPMko18o28LSAwXjy-119" value="" style="endArrow=block;endSize=16;endFill=0;html=1;edgeStyle=orthogonalEdgeStyle;entryX=0.25;entryY=1;entryDx=0;entryDy=0;exitX=0.5;exitY=0;exitDx=0;exitDy=0;" parent="Qm6FtNiJ-j_i7UbqSpTN-31" source="uffdPMko18o28LSAwXjy-96" target="uffdPMko18o28LSAwXjy-94" edge="1">
                    <mxGeometry width="160" relative="1" as="geometry">
                        <mxPoint x="365" y="170" as="sourcePoint"/>
                        <mxPoint x="365" y="124" as="targetPoint"/>
                    </mxGeometry>
                </mxCell>
                <mxCell id="uffdPMko18o28LSAwXjy-92" value="«Abs» PropertySource" style="swimlane;fontStyle=0;align=center;verticalAlign=top;childLayout=stackLayout;horizontal=1;startSize=26;horizontalStack=0;resizeParent=1;resizeParentMax=0;resizeLast=0;collapsible=1;marginBottom=0;rounded=1;shadow=0;glass=0;sketch=0;html=0;fillColor=#dae8fc;strokeColor=#6c8ebf;" parent="Qm6FtNiJ-j_i7UbqSpTN-31" vertex="1">
                    <mxGeometry x="280" y="20" width="220" height="70" as="geometry"/>
                </mxCell>
                <mxCell id="Qm6FtNiJ-j_i7UbqSpTN-11" value=" String name&#10; T source" style="rounded=0;whiteSpace=wrap;shadow=0;glass=0;sketch=0;align=left;verticalAlign=top;" vertex="1" parent="uffdPMko18o28LSAwXjy-92">
                    <mxGeometry y="26" width="220" height="44" as="geometry"/>
                </mxCell>
                <mxCell id="uffdPMko18o28LSAwXjy-118" value="" style="endArrow=block;endSize=16;endFill=0;html=1;edgeStyle=orthogonalEdgeStyle;entryX=0.5;entryY=1;entryDx=0;entryDy=0;exitX=0.5;exitY=0;exitDx=0;exitDy=0;" parent="Qm6FtNiJ-j_i7UbqSpTN-31" source="uffdPMko18o28LSAwXjy-94" target="uffdPMko18o28LSAwXjy-92" edge="1">
                    <mxGeometry width="160" relative="1" as="geometry">
                        <mxPoint x="-95" y="180" as="sourcePoint"/>
                        <mxPoint x="-95" y="130" as="targetPoint"/>
                    </mxGeometry>
                </mxCell>
                <mxCell id="uffdPMko18o28LSAwXjy-100" value="MapPropertySource" style="swimlane;fontStyle=1;align=center;verticalAlign=top;childLayout=stackLayout;horizontal=1;startSize=30;horizontalStack=0;resizeParent=1;resizeParentMax=0;resizeLast=0;collapsible=1;marginBottom=0;rounded=1;shadow=0;glass=0;sketch=0;html=0;fillColor=#e1d5e7;strokeColor=#9673a6;" parent="Qm6FtNiJ-j_i7UbqSpTN-31" vertex="1">
                    <mxGeometry x="295" y="260" width="190" height="60" as="geometry"/>
                </mxCell>
                <mxCell id="Qm6FtNiJ-j_i7UbqSpTN-18" value=" Map&lt;String, Object&gt; source" style="rounded=0;whiteSpace=wrap;shadow=0;glass=0;sketch=0;align=left;verticalAlign=top;" vertex="1" parent="uffdPMko18o28LSAwXjy-100">
                    <mxGeometry y="30" width="190" height="30" as="geometry"/>
                </mxCell>
                <mxCell id="uffdPMko18o28LSAwXjy-129" value="" style="endArrow=block;endSize=16;endFill=0;html=1;edgeStyle=orthogonalEdgeStyle;entryX=0.5;entryY=1;entryDx=0;entryDy=0;exitX=0.5;exitY=0;exitDx=0;exitDy=0;" parent="Qm6FtNiJ-j_i7UbqSpTN-31" source="uffdPMko18o28LSAwXjy-100" target="Qm6FtNiJ-j_i7UbqSpTN-12" edge="1">
                    <mxGeometry width="160" relative="1" as="geometry">
                        <mxPoint x="165" y="280" as="sourcePoint"/>
                        <mxPoint x="430" y="204" as="targetPoint"/>
                    </mxGeometry>
                </mxCell>
                <mxCell id="uffdPMko18o28LSAwXjy-98" value="«Abs» CommandLinePropertySource" style="swimlane;fontStyle=0;align=center;verticalAlign=top;childLayout=stackLayout;horizontal=1;startSize=30;horizontalStack=0;resizeParent=1;resizeParentMax=0;resizeLast=0;collapsible=1;marginBottom=0;rounded=1;shadow=0;glass=0;sketch=0;html=0;fillColor=#dae8fc;strokeColor=#6c8ebf;" parent="Qm6FtNiJ-j_i7UbqSpTN-31" vertex="1">
                    <mxGeometry x="535" y="260" width="230" height="54" as="geometry"/>
                </mxCell>
                <mxCell id="Qm6FtNiJ-j_i7UbqSpTN-16" value="commandLineArgs /&amp;nbsp;nonOptionArgs" style="rounded=0;whiteSpace=wrap;shadow=0;glass=0;sketch=0;align=center;verticalAlign=top;html=1;" vertex="1" parent="uffdPMko18o28LSAwXjy-98">
                    <mxGeometry y="30" width="230" height="24" as="geometry"/>
                </mxCell>
                <mxCell id="uffdPMko18o28LSAwXjy-128" value="" style="endArrow=block;endSize=16;endFill=0;html=1;edgeStyle=orthogonalEdgeStyle;entryX=0.75;entryY=1;entryDx=0;entryDy=0;exitX=0.5;exitY=0;exitDx=0;exitDy=0;" parent="Qm6FtNiJ-j_i7UbqSpTN-31" source="uffdPMko18o28LSAwXjy-98" target="Qm6FtNiJ-j_i7UbqSpTN-12" edge="1">
                    <mxGeometry width="160" relative="1" as="geometry">
                        <mxPoint x="155" y="270" as="sourcePoint"/>
                        <mxPoint x="420" y="194" as="targetPoint"/>
                    </mxGeometry>
                </mxCell>
                <mxCell id="uffdPMko18o28LSAwXjy-110" value="PropertiesPropertySource" style="swimlane;fontStyle=1;align=center;verticalAlign=top;childLayout=stackLayout;horizontal=1;startSize=26;horizontalStack=0;resizeParent=1;resizeParentMax=0;resizeLast=0;collapsible=1;marginBottom=0;rounded=1;shadow=0;glass=0;sketch=0;html=0;fillColor=#e1d5e7;strokeColor=#9673a6;" parent="Qm6FtNiJ-j_i7UbqSpTN-31" vertex="1">
                    <mxGeometry x="280" y="380" width="220" height="56" as="geometry"/>
                </mxCell>
                <mxCell id="uffdPMko18o28LSAwXjy-121" value="" style="endArrow=block;endSize=16;endFill=0;html=1;edgeStyle=orthogonalEdgeStyle;entryX=0.5;entryY=1;entryDx=0;entryDy=0;exitX=0.5;exitY=0;exitDx=0;exitDy=0;" parent="Qm6FtNiJ-j_i7UbqSpTN-31" source="uffdPMko18o28LSAwXjy-110" target="uffdPMko18o28LSAwXjy-100" edge="1">
                    <mxGeometry width="160" relative="1" as="geometry">
                        <mxPoint x="-75" y="280" as="sourcePoint"/>
                        <mxPoint x="80" y="214" as="targetPoint"/>
                    </mxGeometry>
                </mxCell>
                <mxCell id="uffdPMko18o28LSAwXjy-112" value="SystemEnvironmentPropertySource" style="swimlane;fontStyle=0;align=center;verticalAlign=top;childLayout=stackLayout;horizontal=1;startSize=26;horizontalStack=0;resizeParent=1;resizeParentMax=0;resizeLast=0;collapsible=1;marginBottom=0;rounded=1;shadow=0;glass=0;sketch=0;html=0;fillColor=#f5f5f5;strokeColor=#666666;fontColor=#333333;" parent="Qm6FtNiJ-j_i7UbqSpTN-31" vertex="1">
                    <mxGeometry x="25" y="380" width="220" height="34" as="geometry"/>
                </mxCell>
                <mxCell id="uffdPMko18o28LSAwXjy-124" value="" style="endArrow=block;endSize=16;endFill=0;html=1;edgeStyle=orthogonalEdgeStyle;entryX=0.25;entryY=1;entryDx=0;entryDy=0;exitX=0.5;exitY=0;exitDx=0;exitDy=0;" parent="Qm6FtNiJ-j_i7UbqSpTN-31" source="uffdPMko18o28LSAwXjy-112" target="Qm6FtNiJ-j_i7UbqSpTN-18" edge="1">
                    <mxGeometry width="160" relative="1" as="geometry">
                        <mxPoint x="-85" y="270" as="sourcePoint"/>
                        <mxPoint x="70" y="204" as="targetPoint"/>
                    </mxGeometry>
                </mxCell>
                <mxCell id="uffdPMko18o28LSAwXjy-108" value="SimpleCommandLinePropertySource" style="swimlane;fontStyle=1;align=center;verticalAlign=top;childLayout=stackLayout;horizontal=1;startSize=26;horizontalStack=0;resizeParent=1;resizeParentMax=0;resizeLast=0;collapsible=1;marginBottom=0;rounded=1;shadow=0;glass=0;sketch=0;html=0;fillColor=#f8cecc;strokeColor=#b85450;" parent="Qm6FtNiJ-j_i7UbqSpTN-31" vertex="1">
                    <mxGeometry x="525" y="380" width="250" height="74" as="geometry"/>
                </mxCell>
                <mxCell id="Qm6FtNiJ-j_i7UbqSpTN-13" value=" Spring Boot 控制台传参形式" style="rounded=0;whiteSpace=wrap;shadow=0;glass=0;sketch=0;align=left;verticalAlign=top;" vertex="1" parent="uffdPMko18o28LSAwXjy-108">
                    <mxGeometry y="26" width="250" height="24" as="geometry"/>
                </mxCell>
                <mxCell id="Qm6FtNiJ-j_i7UbqSpTN-15" value=" --optName[=optValue]" style="rounded=0;whiteSpace=wrap;shadow=0;glass=0;sketch=0;align=left;verticalAlign=top;" vertex="1" parent="uffdPMko18o28LSAwXjy-108">
                    <mxGeometry y="50" width="250" height="24" as="geometry"/>
                </mxCell>
                <mxCell id="uffdPMko18o28LSAwXjy-123" value="" style="endArrow=block;endSize=16;endFill=0;html=1;edgeStyle=orthogonalEdgeStyle;entryX=0.5;entryY=1;entryDx=0;entryDy=0;exitX=0.5;exitY=0;exitDx=0;exitDy=0;" parent="Qm6FtNiJ-j_i7UbqSpTN-31" source="uffdPMko18o28LSAwXjy-108" target="uffdPMko18o28LSAwXjy-98" edge="1">
                    <mxGeometry width="160" relative="1" as="geometry">
                        <mxPoint x="-505" y="310" as="sourcePoint"/>
                        <mxPoint x="-350" y="244" as="targetPoint"/>
                    </mxGeometry>
                </mxCell>
                <mxCell id="uffdPMko18o28LSAwXjy-116" value="ResourcePropertySource" style="swimlane;fontStyle=0;align=center;verticalAlign=top;childLayout=stackLayout;horizontal=1;startSize=26;horizontalStack=0;resizeParent=1;resizeParentMax=0;resizeLast=0;collapsible=1;marginBottom=0;rounded=1;shadow=0;glass=0;sketch=0;html=0;fillColor=#f5f5f5;strokeColor=#666666;fontColor=#333333;" parent="Qm6FtNiJ-j_i7UbqSpTN-31" vertex="1">
                    <mxGeometry x="280" y="483" width="220" height="56" as="geometry"/>
                </mxCell>
                <mxCell id="Qm6FtNiJ-j_i7UbqSpTN-27" value="Resource source" style="rounded=0;whiteSpace=wrap;shadow=0;glass=0;sketch=0;align=left;verticalAlign=top;" vertex="1" parent="uffdPMko18o28LSAwXjy-116">
                    <mxGeometry y="26" width="220" height="30" as="geometry"/>
                </mxCell>
                <mxCell id="uffdPMko18o28LSAwXjy-125" value="" style="endArrow=block;endSize=16;endFill=0;html=1;edgeStyle=orthogonalEdgeStyle;entryX=0.5;entryY=1;entryDx=0;entryDy=0;exitX=0.5;exitY=0;exitDx=0;exitDy=0;" parent="Qm6FtNiJ-j_i7UbqSpTN-31" source="uffdPMko18o28LSAwXjy-116" target="uffdPMko18o28LSAwXjy-110" edge="1">
                    <mxGeometry width="160" relative="1" as="geometry">
                        <mxPoint x="335" y="434" as="sourcePoint"/>
                        <mxPoint x="340" y="304" as="targetPoint"/>
                    </mxGeometry>
                </mxCell>
                <mxCell id="Qm6FtNiJ-j_i7UbqSpTN-29" value="Properties source" style="rounded=0;whiteSpace=wrap;shadow=0;glass=0;sketch=0;align=left;verticalAlign=top;" vertex="1" parent="Qm6FtNiJ-j_i7UbqSpTN-31">
                    <mxGeometry x="280" y="406" width="220" height="30" as="geometry"/>
                </mxCell>
                <mxCell id="uffdPMko18o28LSAwXjy-106" value="JOptCommandLinePropertySource" style="swimlane;fontStyle=0;align=center;verticalAlign=top;childLayout=stackLayout;horizontal=1;startSize=26;horizontalStack=0;resizeParent=1;resizeParentMax=0;resizeLast=0;collapsible=1;marginBottom=0;rounded=1;shadow=0;glass=0;sketch=0;html=0;fillColor=#f5f5f5;strokeColor=#666666;fontColor=#333333;" parent="Qm6FtNiJ-j_i7UbqSpTN-31" vertex="1">
                    <mxGeometry x="795" y="380" width="220" height="50" as="geometry"/>
                </mxCell>
                <mxCell id="Qm6FtNiJ-j_i7UbqSpTN-28" value=" --optName[=optValue]" style="rounded=0;whiteSpace=wrap;shadow=0;glass=0;sketch=0;align=left;verticalAlign=top;" vertex="1" parent="uffdPMko18o28LSAwXjy-106">
                    <mxGeometry y="26" width="220" height="24" as="geometry"/>
                </mxCell>
                <mxCell id="uffdPMko18o28LSAwXjy-122" value="" style="endArrow=block;endSize=16;endFill=0;html=1;edgeStyle=orthogonalEdgeStyle;exitX=0.5;exitY=0;exitDx=0;exitDy=0;entryX=0.75;entryY=1;entryDx=0;entryDy=0;" parent="Qm6FtNiJ-j_i7UbqSpTN-31" source="uffdPMko18o28LSAwXjy-106" target="Qm6FtNiJ-j_i7UbqSpTN-16" edge="1">
                    <mxGeometry width="160" relative="1" as="geometry">
                        <mxPoint x="-515" y="300" as="sourcePoint"/>
                        <mxPoint x="-395" y="330" as="targetPoint"/>
                    </mxGeometry>
                </mxCell>
                <mxCell id="uffdPMko18o28LSAwXjy-104" value="ServletContextPropertySource" style="swimlane;fontStyle=0;align=center;verticalAlign=top;childLayout=stackLayout;horizontal=1;startSize=26;horizontalStack=0;resizeParent=1;resizeParentMax=0;resizeLast=0;collapsible=1;marginBottom=0;rounded=1;shadow=0;glass=0;sketch=0;html=0;fillColor=#e1d5e7;strokeColor=#9673a6;" parent="Qm6FtNiJ-j_i7UbqSpTN-31" vertex="1">
                    <mxGeometry x="685" y="100" width="220" height="56" as="geometry"/>
                </mxCell>
                <mxCell id="Qm6FtNiJ-j_i7UbqSpTN-19" value="ServletContext source" style="rounded=0;whiteSpace=wrap;shadow=0;glass=0;sketch=0;align=left;verticalAlign=top;" vertex="1" parent="uffdPMko18o28LSAwXjy-104">
                    <mxGeometry y="26" width="220" height="30" as="geometry"/>
                </mxCell>
                <mxCell id="uffdPMko18o28LSAwXjy-127" value="" style="endArrow=block;endSize=16;endFill=0;html=1;edgeStyle=orthogonalEdgeStyle;entryX=1;entryY=0.5;entryDx=0;entryDy=0;exitX=0;exitY=0.5;exitDx=0;exitDy=0;" parent="Qm6FtNiJ-j_i7UbqSpTN-31" source="uffdPMko18o28LSAwXjy-104" target="uffdPMko18o28LSAwXjy-94" edge="1">
                    <mxGeometry width="160" relative="1" as="geometry">
                        <mxPoint x="165" y="280" as="sourcePoint"/>
                        <mxPoint x="720" y="194" as="targetPoint"/>
                    </mxGeometry>
                </mxCell>
                <mxCell id="uffdPMko18o28LSAwXjy-102" value="ServletConfigPropertySource" style="swimlane;fontStyle=0;align=center;verticalAlign=top;childLayout=stackLayout;horizontal=1;startSize=26;horizontalStack=0;resizeParent=1;resizeParentMax=0;resizeLast=0;collapsible=1;marginBottom=0;rounded=1;shadow=0;glass=0;sketch=0;html=0;fillColor=#e1d5e7;strokeColor=#9673a6;" parent="Qm6FtNiJ-j_i7UbqSpTN-31" vertex="1">
                    <mxGeometry x="685" y="174" width="220" height="56" as="geometry"/>
                </mxCell>
                <mxCell id="Qm6FtNiJ-j_i7UbqSpTN-20" value="ServletConfig source" style="rounded=0;whiteSpace=wrap;shadow=0;glass=0;sketch=0;align=left;verticalAlign=top;" vertex="1" parent="uffdPMko18o28LSAwXjy-102">
                    <mxGeometry y="26" width="220" height="30" as="geometry"/>
                </mxCell>
                <mxCell id="uffdPMko18o28LSAwXjy-126" value="" style="endArrow=block;endSize=16;endFill=0;html=1;edgeStyle=orthogonalEdgeStyle;entryX=1;entryY=0.5;entryDx=0;entryDy=0;exitX=0;exitY=0.5;exitDx=0;exitDy=0;" parent="Qm6FtNiJ-j_i7UbqSpTN-31" source="uffdPMko18o28LSAwXjy-102" target="uffdPMko18o28LSAwXjy-94" edge="1">
                    <mxGeometry width="160" relative="1" as="geometry">
                        <mxPoint x="155" y="270" as="sourcePoint"/>
                        <mxPoint x="710" y="184" as="targetPoint"/>
                    </mxGeometry>
                </mxCell>
                <mxCell id="Qm6FtNiJ-j_i7UbqSpTN-8" style="edgeStyle=orthogonalEdgeStyle;rounded=0;orthogonalLoop=1;jettySize=auto;html=1;exitX=1;exitY=0.5;exitDx=0;exitDy=0;entryX=0;entryY=0.5;entryDx=0;entryDy=0;startArrow=diamondThin;startFill=0;fillColor=#ffff88;strokeColor=#36393d;" edge="1" parent="vNIrbcdj6Tb2kEkjcBfy-1" source="Qm6FtNiJ-j_i7UbqSpTN-7" target="uffdPMko18o28LSAwXjy-92">
                    <mxGeometry relative="1" as="geometry">
                        <Array as="points">
                            <mxPoint x="540" y="183"/>
                            <mxPoint x="540" y="-55"/>
                        </Array>
                    </mxGeometry>
                </mxCell>
                <mxCell id="Qm6FtNiJ-j_i7UbqSpTN-46" value="" style="group" vertex="1" connectable="0" parent="vNIrbcdj6Tb2kEkjcBfy-1">
                    <mxGeometry x="-1979" y="-110" width="960" height="830" as="geometry"/>
                </mxCell>
                <mxCell id="Qm6FtNiJ-j_i7UbqSpTN-44" value="" style="rounded=1;whiteSpace=wrap;html=1;align=center;arcSize=2;fillColor=#eeeeee;strokeColor=#36393d;" vertex="1" parent="Qm6FtNiJ-j_i7UbqSpTN-46">
                    <mxGeometry width="960" height="830" as="geometry"/>
                </mxCell>
                <mxCell id="uffdPMko18o28LSAwXjy-130" value="PropertiesLoaderSupport" style="swimlane;fontStyle=1;align=center;verticalAlign=top;childLayout=stackLayout;horizontal=1;startSize=26;horizontalStack=0;resizeParent=1;resizeParentMax=0;resizeLast=0;collapsible=1;marginBottom=0;rounded=1;shadow=0;glass=0;sketch=0;fillColor=#dae8fc;strokeColor=#6c8ebf;" parent="Qm6FtNiJ-j_i7UbqSpTN-46" vertex="1">
                    <mxGeometry x="355" y="40" width="270" height="110" as="geometry">
                        <mxRectangle x="360" y="510" width="170" height="26" as="alternateBounds"/>
                    </mxGeometry>
                </mxCell>
                <mxCell id="uffdPMko18o28LSAwXjy-199" value="&amp;nbsp;@since 1.2.2&lt;br&gt;&amp;nbsp;- localProperties 指定&amp;nbsp;Properties 类&lt;br&gt;&lt;b&gt;&amp;nbsp;-&amp;nbsp;&lt;font color=&quot;#ea6b66&quot;&gt;locations&lt;/font&gt; 指定文件如:&lt;font color=&quot;#ea6b66&quot;&gt;classpath*:*.properties&lt;/font&gt;&lt;br&gt;&amp;nbsp;+&amp;nbsp;mergeProperties() 合并多个 props&lt;/b&gt;&lt;br&gt;&amp;nbsp;+ loadProperties(props)&amp;nbsp; 填充 props" style="rounded=0;whiteSpace=wrap;shadow=0;glass=0;sketch=0;align=left;verticalAlign=top;html=1;" parent="uffdPMko18o28LSAwXjy-130" vertex="1">
                    <mxGeometry y="26" width="270" height="84" as="geometry"/>
                </mxCell>
                <mxCell id="uffdPMko18o28LSAwXjy-158" value="" style="endArrow=block;endSize=16;endFill=0;html=1;edgeStyle=orthogonalEdgeStyle;exitX=0.25;exitY=0;exitDx=0;exitDy=0;entryX=0.75;entryY=1;entryDx=0;entryDy=0;fillColor=#f5f5f5;strokeColor=#CCCCCC;" parent="Qm6FtNiJ-j_i7UbqSpTN-46" source="uffdPMko18o28LSAwXjy-134" target="uffdPMko18o28LSAwXjy-199" edge="1">
                    <mxGeometry width="160" relative="1" as="geometry">
                        <mxPoint x="320" y="357" as="sourcePoint"/>
                        <mxPoint x="383.1199999999999" y="318.0039999999999" as="targetPoint"/>
                        <Array as="points">
                            <mxPoint x="668" y="180"/>
                            <mxPoint x="558" y="180"/>
                        </Array>
                    </mxGeometry>
                </mxCell>
                <mxCell id="uffdPMko18o28LSAwXjy-160" value="" style="endArrow=block;endSize=16;endFill=0;html=1;edgeStyle=orthogonalEdgeStyle;exitX=0.75;exitY=0;exitDx=0;exitDy=0;entryX=0.25;entryY=1;entryDx=0;entryDy=0;" parent="Qm6FtNiJ-j_i7UbqSpTN-46" source="uffdPMko18o28LSAwXjy-138" target="uffdPMko18o28LSAwXjy-199" edge="1">
                    <mxGeometry width="160" relative="1" as="geometry">
                        <mxPoint x="240" y="358" as="sourcePoint"/>
                        <mxPoint x="390" y="290" as="targetPoint"/>
                    </mxGeometry>
                </mxCell>
                <mxCell id="uffdPMko18o28LSAwXjy-194" value="PreferencesPlaceholderConfigurer" style="swimlane;fontStyle=1;align=center;verticalAlign=top;childLayout=stackLayout;horizontal=1;startSize=26;horizontalStack=0;resizeParent=1;resizeParentMax=0;resizeLast=0;collapsible=1;marginBottom=0;rounded=1;shadow=0;glass=0;sketch=0;html=0;" parent="Qm6FtNiJ-j_i7UbqSpTN-46" vertex="1">
                    <mxGeometry x="185" y="720" width="260" height="70" as="geometry">
                        <mxRectangle x="200" y="1001" width="260" height="26" as="alternateBounds"/>
                    </mxGeometry>
                </mxCell>
                <mxCell id="uffdPMko18o28LSAwXjy-195" value="" style="rounded=0;whiteSpace=wrap;html=1;shadow=0;glass=0;sketch=0;align=left;verticalAlign=top;" parent="uffdPMko18o28LSAwXjy-194" vertex="1">
                    <mxGeometry y="26" width="260" height="44" as="geometry"/>
                </mxCell>
                <mxCell id="uffdPMko18o28LSAwXjy-150" value="PropertyPlaceholderConfigurer" style="swimlane;fontStyle=1;align=center;verticalAlign=top;childLayout=stackLayout;horizontal=1;startSize=26;horizontalStack=0;resizeParent=1;resizeParentMax=0;resizeLast=0;collapsible=1;marginBottom=0;rounded=1;shadow=0;glass=0;sketch=0;html=0;fillColor=#d5e8d4;strokeColor=#82b366;" parent="Qm6FtNiJ-j_i7UbqSpTN-46" vertex="1">
                    <mxGeometry x="185" y="616" width="260" height="70" as="geometry">
                        <mxRectangle x="200" y="1001" width="260" height="26" as="alternateBounds"/>
                    </mxGeometry>
                </mxCell>
                <mxCell id="uffdPMko18o28LSAwXjy-185" value=" - 3.1 之前 使用本地 props&#10;+ processProperties() " style="rounded=0;whiteSpace=wrap;shadow=0;glass=0;sketch=0;align=left;verticalAlign=top;" parent="uffdPMko18o28LSAwXjy-150" vertex="1">
                    <mxGeometry y="26" width="260" height="44" as="geometry"/>
                </mxCell>
                <mxCell id="uffdPMko18o28LSAwXjy-196" value="" style="endArrow=block;endSize=16;endFill=0;html=1;edgeStyle=orthogonalEdgeStyle;exitX=0.5;exitY=0;exitDx=0;exitDy=0;entryX=0.5;entryY=1;entryDx=0;entryDy=0;" parent="Qm6FtNiJ-j_i7UbqSpTN-46" source="uffdPMko18o28LSAwXjy-194" target="uffdPMko18o28LSAwXjy-185" edge="1">
                    <mxGeometry width="160" relative="1" as="geometry">
                        <mxPoint x="315" y="616" as="sourcePoint"/>
                        <mxPoint x="305" y="670" as="targetPoint"/>
                    </mxGeometry>
                </mxCell>
                <mxCell id="uffdPMko18o28LSAwXjy-142" value="PlaceholderConfigurerSupport" style="swimlane;fontStyle=1;align=center;verticalAlign=top;childLayout=stackLayout;horizontal=1;startSize=26;horizontalStack=0;resizeParent=1;resizeParentMax=0;resizeLast=0;collapsible=1;marginBottom=0;rounded=1;shadow=0;glass=0;sketch=0;html=0;fillColor=#f8cecc;strokeColor=#b85450;" parent="Qm6FtNiJ-j_i7UbqSpTN-46" vertex="1">
                    <mxGeometry x="467.5" y="460" width="210" height="80" as="geometry"/>
                </mxCell>
                <mxCell id="uffdPMko18o28LSAwXjy-197" value="@since 3.1  &#10;定义 ${val:def} 的形式&#10;+ doProcessProperties" style="rounded=0;whiteSpace=wrap;shadow=0;glass=0;sketch=0;align=left;verticalAlign=top;fillColor=#fad9d5;strokeColor=#ae4132;" parent="uffdPMko18o28LSAwXjy-142" vertex="1">
                    <mxGeometry y="26" width="210" height="54" as="geometry"/>
                </mxCell>
                <mxCell id="uffdPMko18o28LSAwXjy-164" value="" style="endArrow=block;endSize=16;endFill=0;html=1;edgeStyle=orthogonalEdgeStyle;exitX=0.5;exitY=0;exitDx=0;exitDy=0;entryX=0.25;entryY=1;entryDx=0;entryDy=0;" parent="Qm6FtNiJ-j_i7UbqSpTN-46" source="uffdPMko18o28LSAwXjy-150" target="uffdPMko18o28LSAwXjy-197" edge="1">
                    <mxGeometry width="160" relative="1" as="geometry">
                        <mxPoint x="435" y="618" as="sourcePoint"/>
                        <mxPoint x="545" y="558" as="targetPoint"/>
                    </mxGeometry>
                </mxCell>
                <mxCell id="uffdPMko18o28LSAwXjy-154" value="PropertySourcesPlaceholderConfigurer" style="swimlane;fontStyle=1;align=center;verticalAlign=top;childLayout=stackLayout;horizontal=1;startSize=26;horizontalStack=0;resizeParent=1;resizeParentMax=0;resizeLast=0;collapsible=1;marginBottom=0;rounded=1;shadow=0;glass=0;sketch=0;html=0;fillColor=#b1ddf0;strokeColor=#10739e;" parent="Qm6FtNiJ-j_i7UbqSpTN-46" vertex="1">
                    <mxGeometry x="590" y="616" width="280" height="110" as="geometry">
                        <mxRectangle x="470" y="1001" width="210" height="26" as="alternateBounds"/>
                    </mxGeometry>
                </mxCell>
                <mxCell id="uffdPMko18o28LSAwXjy-186" value="@since 3.1 支持从 environment 获取&#10;+ postProcessBeanFactory()&#10;    - &quot;environmentProperties&quot; : environment&#10;    - &quot;localProperties&quot; : mergeProperties()&#10;+ processProperties 已废弃&#10;" style="rounded=0;whiteSpace=wrap;shadow=0;glass=0;sketch=0;align=left;verticalAlign=top;fillColor=#d5e8d4;strokeColor=#82b366;" parent="uffdPMko18o28LSAwXjy-154" vertex="1">
                    <mxGeometry y="26" width="280" height="84" as="geometry"/>
                </mxCell>
                <mxCell id="uffdPMko18o28LSAwXjy-163" value="" style="endArrow=block;endSize=16;endFill=0;html=1;edgeStyle=orthogonalEdgeStyle;exitX=0.5;exitY=0;exitDx=0;exitDy=0;entryX=0.5;entryY=1;entryDx=0;entryDy=0;" parent="Qm6FtNiJ-j_i7UbqSpTN-46" source="uffdPMko18o28LSAwXjy-154" target="uffdPMko18o28LSAwXjy-197" edge="1">
                    <mxGeometry width="160" relative="1" as="geometry">
                        <mxPoint x="425" y="495" as="sourcePoint"/>
                        <mxPoint x="436.5" y="563" as="targetPoint"/>
                    </mxGeometry>
                </mxCell>
                <mxCell id="uffdPMko18o28LSAwXjy-187" value="«interface»&#10;EnvironmentAware" style="rounded=1;shadow=0;glass=0;sketch=0;fillColor=#dae8fc;strokeColor=#6c8ebf;gradientColor=#7ea6e0;fontStyle=1" parent="Qm6FtNiJ-j_i7UbqSpTN-46" vertex="1">
                    <mxGeometry x="807.5" y="352" width="140" height="50" as="geometry"/>
                </mxCell>
                <mxCell id="uffdPMko18o28LSAwXjy-188" value="" style="endArrow=block;dashed=1;endFill=0;endSize=12;html=1;edgeStyle=orthogonalEdgeStyle;exitX=0.75;exitY=0;exitDx=0;exitDy=0;entryX=0.5;entryY=1;entryDx=0;entryDy=0;" parent="Qm6FtNiJ-j_i7UbqSpTN-46" source="uffdPMko18o28LSAwXjy-154" target="uffdPMko18o28LSAwXjy-187" edge="1">
                    <mxGeometry width="160" relative="1" as="geometry">
                        <mxPoint x="355" y="495" as="sourcePoint"/>
                        <mxPoint x="255" y="434" as="targetPoint"/>
                    </mxGeometry>
                </mxCell>
                <mxCell id="uffdPMko18o28LSAwXjy-182" value="«interface»&#10;BeanFactoryAware" style="rounded=1;shadow=0;glass=0;sketch=0;fillColor=#dae8fc;strokeColor=#6c8ebf;gradientColor=#7ea6e0;fontStyle=1" parent="Qm6FtNiJ-j_i7UbqSpTN-46" vertex="1">
                    <mxGeometry x="512.5" y="352" width="120" height="50" as="geometry"/>
                </mxCell>
                <mxCell id="uffdPMko18o28LSAwXjy-184" value="" style="endArrow=block;dashed=1;endFill=0;endSize=12;html=1;edgeStyle=orthogonalEdgeStyle;exitX=0.5;exitY=0;exitDx=0;exitDy=0;entryX=0.5;entryY=1;entryDx=0;entryDy=0;" parent="Qm6FtNiJ-j_i7UbqSpTN-46" source="uffdPMko18o28LSAwXjy-142" target="uffdPMko18o28LSAwXjy-182" edge="1">
                    <mxGeometry width="160" relative="1" as="geometry">
                        <mxPoint x="404" y="380" as="sourcePoint"/>
                        <mxPoint x="724" y="215" as="targetPoint"/>
                    </mxGeometry>
                </mxCell>
                <mxCell id="uffdPMko18o28LSAwXjy-181" value="«interface»&#10;BeanNameAware" style="rounded=1;shadow=0;glass=0;sketch=0;fillColor=#dae8fc;strokeColor=#6c8ebf;gradientColor=#7ea6e0;" parent="Qm6FtNiJ-j_i7UbqSpTN-46" vertex="1">
                    <mxGeometry x="655" y="352" width="140" height="50" as="geometry"/>
                </mxCell>
                <mxCell id="uffdPMko18o28LSAwXjy-183" value="" style="endArrow=block;dashed=1;endFill=0;endSize=12;html=1;edgeStyle=orthogonalEdgeStyle;exitX=0.75;exitY=0;exitDx=0;exitDy=0;entryX=0.5;entryY=1;entryDx=0;entryDy=0;" parent="Qm6FtNiJ-j_i7UbqSpTN-46" source="uffdPMko18o28LSAwXjy-142" target="uffdPMko18o28LSAwXjy-181" edge="1">
                    <mxGeometry width="160" relative="1" as="geometry">
                        <mxPoint x="836.5" y="491" as="sourcePoint"/>
                        <mxPoint x="670" y="207" as="targetPoint"/>
                    </mxGeometry>
                </mxCell>
                <mxCell id="uffdPMko18o28LSAwXjy-189" value="«interface»&#10;Aware" style="rounded=1;shadow=0;glass=0;sketch=0;fillColor=#dae8fc;strokeColor=#6c8ebf;gradientColor=#7ea6e0;" parent="Qm6FtNiJ-j_i7UbqSpTN-46" vertex="1">
                    <mxGeometry x="655" y="270" width="140" height="32" as="geometry"/>
                </mxCell>
                <mxCell id="uffdPMko18o28LSAwXjy-193" value="" style="endArrow=block;dashed=1;endFill=0;endSize=12;html=1;edgeStyle=orthogonalEdgeStyle;exitX=0.5;exitY=0;exitDx=0;exitDy=0;entryX=0.75;entryY=1;entryDx=0;entryDy=0;" parent="Qm6FtNiJ-j_i7UbqSpTN-46" source="uffdPMko18o28LSAwXjy-187" target="uffdPMko18o28LSAwXjy-189" edge="1">
                    <mxGeometry width="160" relative="1" as="geometry">
                        <mxPoint x="630" y="613" as="sourcePoint"/>
                        <mxPoint x="532.5" y="434" as="targetPoint"/>
                    </mxGeometry>
                </mxCell>
                <mxCell id="uffdPMko18o28LSAwXjy-191" value="" style="endArrow=block;dashed=1;endFill=0;endSize=12;html=1;edgeStyle=orthogonalEdgeStyle;exitX=0.5;exitY=0;exitDx=0;exitDy=0;entryX=0.25;entryY=1;entryDx=0;entryDy=0;" parent="Qm6FtNiJ-j_i7UbqSpTN-46" source="uffdPMko18o28LSAwXjy-182" target="uffdPMko18o28LSAwXjy-189" edge="1">
                    <mxGeometry width="160" relative="1" as="geometry">
                        <mxPoint x="610" y="593" as="sourcePoint"/>
                        <mxPoint x="512.5" y="414" as="targetPoint"/>
                    </mxGeometry>
                </mxCell>
                <mxCell id="uffdPMko18o28LSAwXjy-192" value="" style="endArrow=block;dashed=1;endFill=0;endSize=12;html=1;edgeStyle=orthogonalEdgeStyle;exitX=0.5;exitY=0;exitDx=0;exitDy=0;entryX=0.5;entryY=1;entryDx=0;entryDy=0;" parent="Qm6FtNiJ-j_i7UbqSpTN-46" source="uffdPMko18o28LSAwXjy-181" target="uffdPMko18o28LSAwXjy-189" edge="1">
                    <mxGeometry width="160" relative="1" as="geometry">
                        <mxPoint x="630" y="603" as="sourcePoint"/>
                        <mxPoint x="532.5" y="424" as="targetPoint"/>
                    </mxGeometry>
                </mxCell>
                <mxCell id="uffdPMko18o28LSAwXjy-173" value="«interface»&#10;InitializingBean" style="rounded=1;shadow=0;glass=0;sketch=0;fillColor=#f5f5f5;fontColor=#333333;strokeColor=#CCCCCC;" parent="Qm6FtNiJ-j_i7UbqSpTN-46" vertex="1">
                    <mxGeometry x="655" y="40" width="110" height="50" as="geometry"/>
                </mxCell>
                <mxCell id="uffdPMko18o28LSAwXjy-172" value="«interface»&#10;FactoryBean&lt;Properties&gt;" style="rounded=1;shadow=0;glass=0;sketch=0;fillColor=#f5f5f5;fontColor=#333333;strokeColor=#CCCCCC;" parent="Qm6FtNiJ-j_i7UbqSpTN-46" vertex="1">
                    <mxGeometry x="772.5" y="40" width="160" height="50" as="geometry"/>
                </mxCell>
                <mxCell id="uffdPMko18o28LSAwXjy-146" value="PropertyOverrideConfigurer" style="swimlane;fontStyle=0;align=center;verticalAlign=top;childLayout=stackLayout;horizontal=1;startSize=26;horizontalStack=0;resizeParent=1;resizeParentMax=0;resizeLast=0;collapsible=1;marginBottom=0;rounded=1;shadow=0;glass=0;sketch=0;html=0;fontColor=#333333;fillColor=#f5f5f5;strokeColor=#E6E6E6;" parent="Qm6FtNiJ-j_i7UbqSpTN-46" vertex="1">
                    <mxGeometry x="20" y="460" width="210" height="80" as="geometry"/>
                </mxCell>
                <mxCell id="vkuDN0tzw3VkT4sUhJ8l-1" value="@since 2003&lt;br&gt;通过&amp;nbsp;beanName.property=value &lt;br&gt;形式覆盖bean属性" style="rounded=0;whiteSpace=wrap;html=1;shadow=0;glass=0;sketch=0;align=left;verticalAlign=top;fillColor=#eeeeee;strokeColor=#E6E6E6;" parent="uffdPMko18o28LSAwXjy-146" vertex="1">
                    <mxGeometry y="26" width="210" height="54" as="geometry"/>
                </mxCell>
                <mxCell id="uffdPMko18o28LSAwXjy-165" value="«interface»&#10;BeanFactoryPostProcessor" style="rounded=1;shadow=0;glass=0;sketch=0;fillColor=#dae8fc;strokeColor=#6c8ebf;gradientColor=#7ea6e0;fontStyle=1" parent="Qm6FtNiJ-j_i7UbqSpTN-46" vertex="1">
                    <mxGeometry x="160" y="100" width="165" height="50" as="geometry"/>
                </mxCell>
                <mxCell id="uffdPMko18o28LSAwXjy-138" value="PropertyResourceConfigurer" style="swimlane;fontStyle=1;align=center;verticalAlign=top;childLayout=stackLayout;horizontal=1;startSize=26;horizontalStack=0;resizeParent=1;resizeParentMax=0;resizeLast=0;collapsible=1;marginBottom=0;rounded=1;shadow=0;glass=0;sketch=0;html=0;fillColor=#f8cecc;strokeColor=#b85450;" parent="Qm6FtNiJ-j_i7UbqSpTN-46" vertex="1">
                    <mxGeometry x="117.5" y="290" width="250" height="80" as="geometry"/>
                </mxCell>
                <mxCell id="uffdPMko18o28LSAwXjy-198" value="@since 2003&lt;br&gt;&lt;b&gt;+&amp;nbsp;postProcessBeanFactory() &lt;font color=&quot;#ea6b66&quot;&gt;加载配置&lt;/font&gt;&lt;/b&gt;&lt;br&gt;&lt;b&gt;+ processProperties() 子类处理 props 扩展&lt;/b&gt;" style="rounded=0;whiteSpace=wrap;shadow=0;glass=0;sketch=0;align=left;verticalAlign=top;html=1;fillColor=#fad9d5;strokeColor=#ae4132;" parent="uffdPMko18o28LSAwXjy-138" vertex="1">
                    <mxGeometry y="26" width="250" height="54" as="geometry"/>
                </mxCell>
                <mxCell id="uffdPMko18o28LSAwXjy-162" value="" style="endArrow=block;endSize=16;endFill=0;html=1;edgeStyle=orthogonalEdgeStyle;exitX=0.25;exitY=0;exitDx=0;exitDy=0;entryX=0.75;entryY=1;entryDx=0;entryDy=0;" parent="Qm6FtNiJ-j_i7UbqSpTN-46" source="uffdPMko18o28LSAwXjy-142" target="uffdPMko18o28LSAwXjy-198" edge="1">
                    <mxGeometry width="160" relative="1" as="geometry">
                        <mxPoint x="845" y="498" as="sourcePoint"/>
                        <mxPoint x="735" y="418" as="targetPoint"/>
                        <Array as="points">
                            <mxPoint x="520" y="430"/>
                            <mxPoint x="305" y="430"/>
                        </Array>
                    </mxGeometry>
                </mxCell>
                <mxCell id="uffdPMko18o28LSAwXjy-161" value="" style="endArrow=block;endSize=16;endFill=0;html=1;exitX=0.5;exitY=0;exitDx=0;exitDy=0;entryX=0.25;entryY=1;entryDx=0;entryDy=0;edgeStyle=orthogonalEdgeStyle;" parent="Qm6FtNiJ-j_i7UbqSpTN-46" source="uffdPMko18o28LSAwXjy-146" target="uffdPMko18o28LSAwXjy-198" edge="1">
                    <mxGeometry width="160" relative="1" as="geometry">
                        <mxPoint x="675" y="358" as="sourcePoint"/>
                        <mxPoint x="775" y="458" as="targetPoint"/>
                        <Array as="points">
                            <mxPoint x="125" y="430"/>
                            <mxPoint x="180" y="430"/>
                        </Array>
                    </mxGeometry>
                </mxCell>
                <mxCell id="uffdPMko18o28LSAwXjy-169" value="" style="endArrow=block;dashed=1;endFill=0;endSize=12;html=1;edgeStyle=orthogonalEdgeStyle;exitX=0.5;exitY=0;exitDx=0;exitDy=0;entryX=0.5;entryY=1;entryDx=0;entryDy=0;" parent="Qm6FtNiJ-j_i7UbqSpTN-46" source="uffdPMko18o28LSAwXjy-138" target="uffdPMko18o28LSAwXjy-165" edge="1">
                    <mxGeometry width="160" relative="1" as="geometry">
                        <mxPoint x="-152" y="367" as="sourcePoint"/>
                        <mxPoint x="-152" y="156" as="targetPoint"/>
                    </mxGeometry>
                </mxCell>
                <mxCell id="uffdPMko18o28LSAwXjy-134" value="PropertiesFactoryBean" style="swimlane;fontStyle=0;align=center;verticalAlign=top;childLayout=stackLayout;horizontal=1;startSize=26;horizontalStack=0;resizeParent=1;resizeParentMax=0;resizeLast=0;collapsible=1;marginBottom=0;rounded=1;shadow=0;glass=0;sketch=0;html=0;fillColor=#f5f5f5;fontColor=#333333;strokeColor=#CCCCCC;" parent="Qm6FtNiJ-j_i7UbqSpTN-46" vertex="1">
                    <mxGeometry x="625" y="200" width="172.5" height="40" as="geometry"/>
                </mxCell>
                <mxCell id="uffdPMko18o28LSAwXjy-178" value="" style="endArrow=block;dashed=1;endFill=0;endSize=12;html=1;edgeStyle=orthogonalEdgeStyle;exitX=0.5;exitY=0;exitDx=0;exitDy=0;entryX=0.5;entryY=1;entryDx=0;entryDy=0;fillColor=#f5f5f5;strokeColor=#CCCCCC;" parent="Qm6FtNiJ-j_i7UbqSpTN-46" source="uffdPMko18o28LSAwXjy-134" target="uffdPMko18o28LSAwXjy-173" edge="1">
                    <mxGeometry width="160" relative="1" as="geometry">
                        <mxPoint x="1275" y="387" as="sourcePoint"/>
                        <mxPoint x="1275" y="222" as="targetPoint"/>
                    </mxGeometry>
                </mxCell>
                <mxCell id="uffdPMko18o28LSAwXjy-179" value="" style="endArrow=block;dashed=1;endFill=0;endSize=12;html=1;edgeStyle=orthogonalEdgeStyle;exitX=0.75;exitY=0;exitDx=0;exitDy=0;entryX=0.5;entryY=1;entryDx=0;entryDy=0;fillColor=#f5f5f5;strokeColor=#CCCCCC;" parent="Qm6FtNiJ-j_i7UbqSpTN-46" source="uffdPMko18o28LSAwXjy-134" target="uffdPMko18o28LSAwXjy-172" edge="1">
                    <mxGeometry width="160" relative="1" as="geometry">
                        <mxPoint x="1285" y="397" as="sourcePoint"/>
                        <mxPoint x="1285" y="232" as="targetPoint"/>
                        <Array as="points">
                            <mxPoint x="754" y="140"/>
                            <mxPoint x="853" y="140"/>
                        </Array>
                    </mxGeometry>
                </mxCell>
                <mxCell id="uffdPMko18o28LSAwXjy-167" value="«interface»&#10;Ordered" style="rounded=1;shadow=0;glass=0;sketch=0;fillColor=#dae8fc;strokeColor=#6c8ebf;" parent="Qm6FtNiJ-j_i7UbqSpTN-46" vertex="1">
                    <mxGeometry x="38.5" y="30" width="98" height="40" as="geometry"/>
                </mxCell>
                <mxCell id="uffdPMko18o28LSAwXjy-166" value="«interface»&#10;PriorityOrdered" style="rounded=1;shadow=0;glass=0;sketch=0;fillColor=#dae8fc;strokeColor=#6c8ebf;" parent="Qm6FtNiJ-j_i7UbqSpTN-46" vertex="1">
                    <mxGeometry x="37.5" y="105" width="100" height="40" as="geometry"/>
                </mxCell>
                <mxCell id="uffdPMko18o28LSAwXjy-170" value="" style="endArrow=block;dashed=1;endFill=0;endSize=12;html=1;edgeStyle=orthogonalEdgeStyle;exitX=0.25;exitY=0;exitDx=0;exitDy=0;entryX=0.5;entryY=1;entryDx=0;entryDy=0;" parent="Qm6FtNiJ-j_i7UbqSpTN-46" source="uffdPMko18o28LSAwXjy-138" target="uffdPMko18o28LSAwXjy-166" edge="1">
                    <mxGeometry width="160" relative="1" as="geometry">
                        <mxPoint x="540" y="358" as="sourcePoint"/>
                        <mxPoint x="680" y="288" as="targetPoint"/>
                    </mxGeometry>
                </mxCell>
                <mxCell id="uffdPMko18o28LSAwXjy-168" value="" style="endArrow=block;endSize=16;endFill=0;html=1;edgeStyle=orthogonalEdgeStyle;exitX=0.5;exitY=0;exitDx=0;exitDy=0;entryX=0.5;entryY=1;entryDx=0;entryDy=0;" parent="Qm6FtNiJ-j_i7UbqSpTN-46" source="uffdPMko18o28LSAwXjy-166" target="uffdPMko18o28LSAwXjy-167" edge="1">
                    <mxGeometry width="160" relative="1" as="geometry">
                        <mxPoint x="-241.5" y="256" as="sourcePoint"/>
                        <mxPoint x="-331.5" y="212" as="targetPoint"/>
                    </mxGeometry>
                </mxCell>
                <mxCell id="Qm6FtNiJ-j_i7UbqSpTN-47" style="edgeStyle=orthogonalEdgeStyle;rounded=0;orthogonalLoop=1;jettySize=auto;html=1;exitX=1;exitY=0.5;exitDx=0;exitDy=0;entryX=0;entryY=0.5;entryDx=0;entryDy=0;startArrow=diamondThin;startFill=0;" edge="1" parent="vNIrbcdj6Tb2kEkjcBfy-1" source="uffdPMko18o28LSAwXjy-186" target="uffdPMko18o28LSAwXjy-38">
                    <mxGeometry relative="1" as="geometry">
                        <Array as="points">
                            <mxPoint x="-960" y="574"/>
                            <mxPoint x="-960" y="75"/>
                        </Array>
                    </mxGeometry>
                </mxCell>
                <mxCell id="Qm6FtNiJ-j_i7UbqSpTN-51" value="" style="group" vertex="1" connectable="0" parent="vNIrbcdj6Tb2kEkjcBfy-1">
                    <mxGeometry x="-890" y="-110" width="1050" height="844" as="geometry"/>
                </mxCell>
                <mxCell id="Qm6FtNiJ-j_i7UbqSpTN-42" value="" style="rounded=1;whiteSpace=wrap;html=1;align=center;arcSize=2;fillColor=#eeeeee;strokeColor=#36393d;" vertex="1" parent="Qm6FtNiJ-j_i7UbqSpTN-51">
                    <mxGeometry width="1050" height="844" as="geometry"/>
                </mxCell>
                <mxCell id="Qm6FtNiJ-j_i7UbqSpTN-1" value="«interface»&#10;PropertyResolver" style="swimlane;fontStyle=0;align=center;verticalAlign=top;childLayout=stackLayout;horizontal=1;startSize=40;horizontalStack=0;resizeParent=1;resizeParentMax=0;resizeLast=0;collapsible=1;marginBottom=0;rounded=1;shadow=0;glass=0;sketch=0;html=0;fillColor=#d5e8d4;strokeColor=#82b366;" vertex="1" parent="Qm6FtNiJ-j_i7UbqSpTN-51">
                    <mxGeometry x="292" y="22" width="220" height="88" as="geometry"/>
                </mxCell>
                <mxCell id="Qm6FtNiJ-j_i7UbqSpTN-48" value="&lt;span style=&quot;font-weight: 400;&quot;&gt;+&amp;nbsp;getProperty(key)&lt;/span&gt;" style="rounded=0;whiteSpace=wrap;shadow=0;glass=0;sketch=0;align=left;verticalAlign=top;html=1;fontStyle=1" vertex="1" parent="Qm6FtNiJ-j_i7UbqSpTN-1">
                    <mxGeometry y="40" width="220" height="24" as="geometry"/>
                </mxCell>
                <mxCell id="Qm6FtNiJ-j_i7UbqSpTN-49" value="&lt;div&gt;+&amp;nbsp;resolvePlaceholders(text)&lt;/div&gt;" style="rounded=0;whiteSpace=wrap;shadow=0;glass=0;sketch=0;align=left;verticalAlign=top;html=1;fontStyle=1" vertex="1" parent="Qm6FtNiJ-j_i7UbqSpTN-1">
                    <mxGeometry y="64" width="220" height="24" as="geometry"/>
                </mxCell>
                <mxCell id="uffdPMko18o28LSAwXjy-38" value="«interface»&lt;br&gt;&lt;span&gt;Environment&lt;/span&gt;" style="html=1;rounded=1;shadow=0;glass=0;sketch=0;fillColor=#dae8fc;strokeColor=#6c8ebf;fontStyle=1" parent="Qm6FtNiJ-j_i7UbqSpTN-51" vertex="1">
                    <mxGeometry x="127" y="160" width="220" height="50" as="geometry"/>
                </mxCell>
                <mxCell id="uffdPMko18o28LSAwXjy-39" value="«interface»&lt;br&gt;&lt;span&gt;ConfigurablePropertyResolver&lt;/span&gt;" style="html=1;rounded=1;shadow=0;glass=0;sketch=0;fillColor=#dae8fc;strokeColor=#6c8ebf;" parent="Qm6FtNiJ-j_i7UbqSpTN-51" vertex="1">
                    <mxGeometry x="444" y="160" width="220" height="50" as="geometry"/>
                </mxCell>
                <mxCell id="uffdPMko18o28LSAwXjy-44" value="«interface»&lt;br&gt;&lt;span&gt;ConfigurableEnvironment&lt;/span&gt;" style="html=1;rounded=1;shadow=0;glass=0;sketch=0;fillColor=#dae8fc;strokeColor=#6c8ebf;fontStyle=1" parent="Qm6FtNiJ-j_i7UbqSpTN-51" vertex="1">
                    <mxGeometry x="292" y="290" width="220" height="50" as="geometry"/>
                </mxCell>
                <mxCell id="uffdPMko18o28LSAwXjy-49" value="" style="endArrow=block;endSize=16;endFill=0;html=1;edgeStyle=orthogonalEdgeStyle;exitX=0.5;exitY=0;exitDx=0;exitDy=0;entryX=0.5;entryY=1;entryDx=0;entryDy=0;" parent="Qm6FtNiJ-j_i7UbqSpTN-51" source="uffdPMko18o28LSAwXjy-38" target="Qm6FtNiJ-j_i7UbqSpTN-49" edge="1">
                    <mxGeometry width="160" relative="1" as="geometry">
                        <mxPoint x="247" y="489.5" as="sourcePoint"/>
                        <mxPoint x="402" y="100" as="targetPoint"/>
                    </mxGeometry>
                </mxCell>
                <mxCell id="uffdPMko18o28LSAwXjy-50" value="" style="endArrow=block;endSize=16;endFill=0;html=1;edgeStyle=orthogonalEdgeStyle;entryX=0.5;entryY=1;entryDx=0;entryDy=0;exitX=0.25;exitY=0;exitDx=0;exitDy=0;" parent="Qm6FtNiJ-j_i7UbqSpTN-51" source="uffdPMko18o28LSAwXjy-44" target="uffdPMko18o28LSAwXjy-38" edge="1">
                    <mxGeometry width="160" relative="1" as="geometry">
                        <mxPoint x="257" y="499.5" as="sourcePoint"/>
                        <mxPoint x="417" y="499.5" as="targetPoint"/>
                    </mxGeometry>
                </mxCell>
                <mxCell id="uffdPMko18o28LSAwXjy-53" value="«interface»&lt;br&gt;&lt;span&gt;ConfigurableWebEnvironment&lt;/span&gt;" style="html=1;rounded=1;shadow=0;glass=0;sketch=0;fillColor=#dae8fc;strokeColor=#6c8ebf;fontStyle=1" parent="Qm6FtNiJ-j_i7UbqSpTN-51" vertex="1">
                    <mxGeometry x="30" y="429" width="220" height="50" as="geometry"/>
                </mxCell>
                <mxCell id="uffdPMko18o28LSAwXjy-27" value="" style="endArrow=block;endSize=16;endFill=0;html=1;edgeStyle=orthogonalEdgeStyle;entryX=0.25;entryY=1;entryDx=0;entryDy=0;exitX=0.5;exitY=0;exitDx=0;exitDy=0;" parent="Qm6FtNiJ-j_i7UbqSpTN-51" source="uffdPMko18o28LSAwXjy-53" target="uffdPMko18o28LSAwXjy-44" edge="1">
                    <mxGeometry width="160" relative="1" as="geometry">
                        <mxPoint x="57" y="630" as="sourcePoint"/>
                        <mxPoint x="217" y="630" as="targetPoint"/>
                    </mxGeometry>
                </mxCell>
                <mxCell id="uffdPMko18o28LSAwXjy-54" value="«interface»&lt;br&gt;&lt;span&gt;ConfigurableReactiveWebEnvironment&lt;/span&gt;" style="html=1;rounded=1;shadow=0;glass=0;sketch=0;fillColor=#dae8fc;strokeColor=#6c8ebf;" parent="Qm6FtNiJ-j_i7UbqSpTN-51" vertex="1">
                    <mxGeometry x="555" y="429" width="220" height="50" as="geometry"/>
                </mxCell>
                <mxCell id="uffdPMko18o28LSAwXjy-74" value="" style="endArrow=block;dashed=1;endFill=0;endSize=12;html=1;edgeStyle=orthogonalEdgeStyle;entryX=0.75;entryY=1;entryDx=0;entryDy=0;exitX=0.5;exitY=0;exitDx=0;exitDy=0;" parent="Qm6FtNiJ-j_i7UbqSpTN-51" source="uffdPMko18o28LSAwXjy-45" target="uffdPMko18o28LSAwXjy-39" edge="1">
                    <mxGeometry width="160" relative="1" as="geometry">
                        <mxPoint x="537" y="490" as="sourcePoint"/>
                        <mxPoint x="697" y="490" as="targetPoint"/>
                    </mxGeometry>
                </mxCell>
                <mxCell id="uffdPMko18o28LSAwXjy-78" value="" style="endArrow=block;endSize=16;endFill=0;html=1;edgeStyle=orthogonalEdgeStyle;entryX=0.75;entryY=1;entryDx=0;entryDy=0;exitX=0.5;exitY=0;exitDx=0;exitDy=0;" parent="Qm6FtNiJ-j_i7UbqSpTN-51" source="uffdPMko18o28LSAwXjy-54" target="uffdPMko18o28LSAwXjy-44" edge="1">
                    <mxGeometry width="160" relative="1" as="geometry">
                        <mxPoint x="67" y="640" as="sourcePoint"/>
                        <mxPoint x="227" y="640" as="targetPoint"/>
                    </mxGeometry>
                </mxCell>
                <mxCell id="uffdPMko18o28LSAwXjy-81" value="" style="endArrow=block;dashed=1;endFill=0;endSize=12;html=1;edgeStyle=orthogonalEdgeStyle;exitX=0.5;exitY=0;exitDx=0;exitDy=0;entryX=0.5;entryY=1;entryDx=0;entryDy=0;" parent="Qm6FtNiJ-j_i7UbqSpTN-51" source="uffdPMko18o28LSAwXjy-55" target="uffdPMko18o28LSAwXjy-44" edge="1">
                    <mxGeometry width="160" relative="1" as="geometry">
                        <mxPoint x="727" y="330" as="sourcePoint"/>
                        <mxPoint x="564" y="230" as="targetPoint"/>
                    </mxGeometry>
                </mxCell>
                <mxCell id="uffdPMko18o28LSAwXjy-82" value="" style="endArrow=block;endSize=16;endFill=0;html=1;edgeStyle=orthogonalEdgeStyle;entryX=0.5;entryY=1;entryDx=0;entryDy=0;exitX=0.75;exitY=0;exitDx=0;exitDy=0;" parent="Qm6FtNiJ-j_i7UbqSpTN-51" source="uffdPMko18o28LSAwXjy-44" target="uffdPMko18o28LSAwXjy-39" edge="1">
                    <mxGeometry width="160" relative="1" as="geometry">
                        <mxPoint x="217" y="330" as="sourcePoint"/>
                        <mxPoint x="287" y="230" as="targetPoint"/>
                    </mxGeometry>
                </mxCell>
                <mxCell id="uffdPMko18o28LSAwXjy-83" value="" style="endArrow=block;dashed=1;endFill=0;endSize=12;html=1;edgeStyle=orthogonalEdgeStyle;exitX=0.5;exitY=0;exitDx=0;exitDy=0;entryX=0.5;entryY=1;entryDx=0;entryDy=0;" parent="Qm6FtNiJ-j_i7UbqSpTN-51" source="uffdPMko18o28LSAwXjy-61" target="uffdPMko18o28LSAwXjy-53" edge="1">
                    <mxGeometry width="160" relative="1" as="geometry">
                        <mxPoint x="607" y="460" as="sourcePoint"/>
                        <mxPoint x="462" y="380" as="targetPoint"/>
                    </mxGeometry>
                </mxCell>
                <mxCell id="uffdPMko18o28LSAwXjy-84" value="" style="endArrow=block;dashed=1;endFill=0;endSize=12;html=1;edgeStyle=orthogonalEdgeStyle;exitX=0.5;exitY=0;exitDx=0;exitDy=0;entryX=0.5;entryY=1;entryDx=0;entryDy=0;" parent="Qm6FtNiJ-j_i7UbqSpTN-51" source="uffdPMko18o28LSAwXjy-63" target="uffdPMko18o28LSAwXjy-54" edge="1">
                    <mxGeometry width="160" relative="1" as="geometry">
                        <mxPoint x="322" y="680" as="sourcePoint"/>
                        <mxPoint x="92" y="510" as="targetPoint"/>
                    </mxGeometry>
                </mxCell>
                <mxCell id="uffdPMko18o28LSAwXjy-55" value="AbstractEnvironment" style="swimlane;fontStyle=0;align=center;verticalAlign=top;childLayout=stackLayout;horizontal=1;startSize=26;horizontalStack=0;resizeParent=1;resizeParentMax=0;resizeLast=0;collapsible=1;marginBottom=0;rounded=1;shadow=0;glass=0;sketch=0;html=0;fillColor=#d5e8d4;strokeColor=#82b366;" parent="Qm6FtNiJ-j_i7UbqSpTN-51" vertex="1">
                    <mxGeometry x="292" y="429" width="220" height="60" as="geometry"/>
                </mxCell>
                <mxCell id="Qm6FtNiJ-j_i7UbqSpTN-5" value="" style="rounded=0;whiteSpace=wrap;shadow=0;glass=0;sketch=0;align=left;verticalAlign=top;html=1;" vertex="1" parent="uffdPMko18o28LSAwXjy-55">
                    <mxGeometry y="26" width="220" height="34" as="geometry"/>
                </mxCell>
                <mxCell id="uffdPMko18o28LSAwXjy-61" value="StandardServletEnvironment" style="swimlane;fontStyle=1;align=center;verticalAlign=top;childLayout=stackLayout;horizontal=1;startSize=26;horizontalStack=0;resizeParent=1;resizeParentMax=0;resizeLast=0;collapsible=1;marginBottom=0;rounded=1;shadow=0;glass=0;sketch=0;html=0;fillColor=#d5e8d4;strokeColor=#82b366;" parent="Qm6FtNiJ-j_i7UbqSpTN-51" vertex="1">
                    <mxGeometry x="30" y="690" width="220" height="122" as="geometry"/>
                </mxCell>
                <mxCell id="Qm6FtNiJ-j_i7UbqSpTN-36" value="先通过 StubPropertySource 占位再填充" style="rounded=0;whiteSpace=wrap;shadow=0;glass=0;sketch=0;align=left;verticalAlign=top;" vertex="1" parent="uffdPMko18o28LSAwXjy-61">
                    <mxGeometry y="26" width="220" height="24" as="geometry"/>
                </mxCell>
                <mxCell id="Qm6FtNiJ-j_i7UbqSpTN-39" value="servletContextInitParams" style="rounded=0;whiteSpace=wrap;shadow=0;glass=0;sketch=0;align=center;verticalAlign=top;fontStyle=1" vertex="1" parent="uffdPMko18o28LSAwXjy-61">
                    <mxGeometry y="50" width="220" height="24" as="geometry"/>
                </mxCell>
                <mxCell id="Qm6FtNiJ-j_i7UbqSpTN-37" value="servletConfigInitParams" style="rounded=0;whiteSpace=wrap;shadow=0;glass=0;sketch=0;align=center;verticalAlign=top;fontStyle=1" vertex="1" parent="uffdPMko18o28LSAwXjy-61">
                    <mxGeometry y="74" width="220" height="24" as="geometry"/>
                </mxCell>
                <mxCell id="Qm6FtNiJ-j_i7UbqSpTN-38" value="jndiProperties" style="rounded=0;whiteSpace=wrap;shadow=0;glass=0;sketch=0;align=center;verticalAlign=top;fontStyle=1" vertex="1" parent="uffdPMko18o28LSAwXjy-61">
                    <mxGeometry y="98" width="220" height="24" as="geometry"/>
                </mxCell>
                <mxCell id="uffdPMko18o28LSAwXjy-63" value="StandardReactiveWebEnvironment" style="swimlane;fontStyle=0;align=center;verticalAlign=top;childLayout=stackLayout;horizontal=1;startSize=26;horizontalStack=0;resizeParent=1;resizeParentMax=0;resizeLast=0;collapsible=1;marginBottom=0;rounded=1;shadow=0;glass=0;sketch=0;html=0;fillColor=#d5e8d4;strokeColor=#82b366;" parent="Qm6FtNiJ-j_i7UbqSpTN-51" vertex="1">
                    <mxGeometry x="555" y="690" width="220" height="50" as="geometry"/>
                </mxCell>
                <mxCell id="Qm6FtNiJ-j_i7UbqSpTN-0" value="空的实现" style="rounded=0;whiteSpace=wrap;shadow=0;glass=0;sketch=0;align=center;verticalAlign=top;html=1;" vertex="1" parent="uffdPMko18o28LSAwXjy-63">
                    <mxGeometry y="26" width="220" height="24" as="geometry"/>
                </mxCell>
                <mxCell id="uffdPMko18o28LSAwXjy-59" value="StandardEnvironment" style="swimlane;fontStyle=1;align=center;verticalAlign=middle;childLayout=stackLayout;horizontal=1;startSize=26;horizontalStack=0;resizeParent=1;resizeParentMax=0;resizeLast=0;collapsible=1;marginBottom=0;rounded=1;shadow=0;glass=0;sketch=0;html=0;fillColor=#d5e8d4;strokeColor=#82b366;" parent="Qm6FtNiJ-j_i7UbqSpTN-51" vertex="1">
                    <mxGeometry x="292" y="561" width="220" height="70" as="geometry">
                        <mxRectangle x="-565" y="551" width="160" height="26" as="alternateBounds"/>
                    </mxGeometry>
                </mxCell>
                <mxCell id="Qm6FtNiJ-j_i7UbqSpTN-34" value="&amp;nbsp;systemEnvironment" style="rounded=0;whiteSpace=wrap;shadow=0;glass=0;sketch=0;align=center;verticalAlign=top;html=1;fontStyle=1" vertex="1" parent="uffdPMko18o28LSAwXjy-59">
                    <mxGeometry y="26" width="220" height="24" as="geometry"/>
                </mxCell>
                <mxCell id="Qm6FtNiJ-j_i7UbqSpTN-35" value="&amp;nbsp;systemProperties" style="rounded=0;whiteSpace=wrap;shadow=0;glass=0;sketch=0;align=center;verticalAlign=middle;html=1;fontStyle=1" vertex="1" parent="uffdPMko18o28LSAwXjy-59">
                    <mxGeometry y="50" width="220" height="20" as="geometry"/>
                </mxCell>
                <mxCell id="uffdPMko18o28LSAwXjy-70" value="" style="endArrow=block;endSize=16;endFill=0;html=1;edgeStyle=orthogonalEdgeStyle;entryX=0.5;entryY=1;entryDx=0;entryDy=0;exitX=0.5;exitY=0;exitDx=0;exitDy=0;" parent="Qm6FtNiJ-j_i7UbqSpTN-51" source="uffdPMko18o28LSAwXjy-59" target="uffdPMko18o28LSAwXjy-55" edge="1">
                    <mxGeometry width="160" relative="1" as="geometry">
                        <mxPoint x="457" y="930" as="sourcePoint"/>
                        <mxPoint x="617" y="930" as="targetPoint"/>
                    </mxGeometry>
                </mxCell>
                <mxCell id="uffdPMko18o28LSAwXjy-51" value="" style="endArrow=block;endSize=16;endFill=0;html=1;edgeStyle=orthogonalEdgeStyle;entryX=0.25;entryY=1;entryDx=0;entryDy=0;exitX=0.75;exitY=0;exitDx=0;exitDy=0;" parent="Qm6FtNiJ-j_i7UbqSpTN-51" source="uffdPMko18o28LSAwXjy-61" target="uffdPMko18o28LSAwXjy-59" edge="1">
                    <mxGeometry width="160" relative="1" as="geometry">
                        <mxPoint x="327" y="739.5" as="sourcePoint"/>
                        <mxPoint x="487" y="739.5" as="targetPoint"/>
                    </mxGeometry>
                </mxCell>
                <mxCell id="uffdPMko18o28LSAwXjy-68" value="" style="endArrow=block;endSize=16;endFill=0;html=1;edgeStyle=orthogonalEdgeStyle;entryX=0.75;entryY=1;entryDx=0;entryDy=0;exitX=0.25;exitY=0;exitDx=0;exitDy=0;" parent="Qm6FtNiJ-j_i7UbqSpTN-51" source="uffdPMko18o28LSAwXjy-63" target="uffdPMko18o28LSAwXjy-59" edge="1">
                    <mxGeometry width="160" relative="1" as="geometry">
                        <mxPoint x="617" y="920" as="sourcePoint"/>
                        <mxPoint x="777" y="920" as="targetPoint"/>
                    </mxGeometry>
                </mxCell>
                <mxCell id="uffdPMko18o28LSAwXjy-45" value="AbstractPropertyResolver" style="swimlane;fontStyle=0;align=center;verticalAlign=top;childLayout=stackLayout;horizontal=1;startSize=26;horizontalStack=0;resizeParent=1;resizeParentMax=0;resizeLast=0;collapsible=1;marginBottom=0;rounded=1;shadow=0;glass=0;sketch=0;html=0;fillColor=#f5f5f5;strokeColor=#666666;fontColor=#333333;" parent="Qm6FtNiJ-j_i7UbqSpTN-51" vertex="1">
                    <mxGeometry x="637" y="290" width="220" height="34" as="geometry"/>
                </mxCell>
                <mxCell id="uffdPMko18o28LSAwXjy-57" value="PropertySourcesPropertyResolver" style="swimlane;fontStyle=1;align=center;verticalAlign=top;childLayout=stackLayout;horizontal=1;startSize=26;horizontalStack=0;resizeParent=1;resizeParentMax=0;resizeLast=0;collapsible=1;marginBottom=0;rounded=1;shadow=0;glass=0;sketch=0;html=0;fillColor=#f5f5f5;strokeColor=#666666;fontColor=#333333;" parent="Qm6FtNiJ-j_i7UbqSpTN-51" vertex="1">
                    <mxGeometry x="807" y="429" width="220" height="60" as="geometry"/>
                </mxCell>
                <mxCell id="vkuDN0tzw3VkT4sUhJ8l-2" value="&amp;nbsp;@since 3.1 属性解析器" style="rounded=0;whiteSpace=wrap;shadow=0;glass=0;sketch=0;align=left;verticalAlign=top;html=1;" parent="uffdPMko18o28LSAwXjy-57" vertex="1">
                    <mxGeometry y="26" width="220" height="34" as="geometry"/>
                </mxCell>
                <mxCell id="Qm6FtNiJ-j_i7UbqSpTN-6" style="edgeStyle=orthogonalEdgeStyle;rounded=0;orthogonalLoop=1;jettySize=auto;html=1;exitX=0.75;exitY=1;exitDx=0;exitDy=0;entryX=0.25;entryY=1;entryDx=0;entryDy=0;startArrow=diamondThin;startFill=0;" edge="1" parent="Qm6FtNiJ-j_i7UbqSpTN-51" source="Qm6FtNiJ-j_i7UbqSpTN-5" target="vkuDN0tzw3VkT4sUhJ8l-2">
                    <mxGeometry relative="1" as="geometry"/>
                </mxCell>
                <mxCell id="uffdPMko18o28LSAwXjy-72" value="" style="endArrow=block;endSize=16;endFill=0;html=1;edgeStyle=orthogonalEdgeStyle;entryX=0.5;entryY=1;entryDx=0;entryDy=0;exitX=0.5;exitY=0;exitDx=0;exitDy=0;" parent="Qm6FtNiJ-j_i7UbqSpTN-51" source="uffdPMko18o28LSAwXjy-57" target="uffdPMko18o28LSAwXjy-45" edge="1">
                    <mxGeometry width="160" relative="1" as="geometry">
                        <mxPoint x="787" y="590" as="sourcePoint"/>
                        <mxPoint x="687" y="400" as="targetPoint"/>
                    </mxGeometry>
                </mxCell>
                <mxCell id="uffdPMko18o28LSAwXjy-23" value="" style="endArrow=block;endSize=16;endFill=0;html=1;edgeStyle=orthogonalEdgeStyle;entryX=0.5;entryY=1;entryDx=0;entryDy=0;" parent="Qm6FtNiJ-j_i7UbqSpTN-51" source="uffdPMko18o28LSAwXjy-39" target="Qm6FtNiJ-j_i7UbqSpTN-1" edge="1">
                    <mxGeometry width="160" relative="1" as="geometry">
                        <mxPoint x="237" y="479.5" as="sourcePoint"/>
                        <mxPoint x="402" y="100" as="targetPoint"/>
                    </mxGeometry>
                </mxCell>
            </root>
        </mxGraphModel>
    </diagram>
</mxfile>